<mxfile host="app.diagrams.net" agent="Mozilla/5.0 (Windows NT 10.0; Win64; x64) AppleWebKit/537.36 (KHTML, like Gecko) Chrome/128.0.0.0 YaBrowser/24.10.0.0 Safari/537.36" version="24.8.3">
  <diagram name="Страница — 1" id="PLsbrn37xf1wtGuixKVf">
    <mxGraphModel dx="1182" dy="1081" grid="1" gridSize="10" guides="1" tooltips="1" connect="1" arrows="1" fold="1" page="0" pageScale="1" pageWidth="827" pageHeight="1169" math="0" shadow="0">
      <root>
        <mxCell id="0" />
        <mxCell id="1" parent="0" />
        <mxCell id="LxGKf1Y-PwQG7vBsX0Jm-13" value="" style="shape=cylinder3;whiteSpace=wrap;html=1;boundedLbl=1;backgroundOutline=1;size=15;" parent="1" vertex="1">
          <mxGeometry x="580" y="-85" width="140" height="190" as="geometry" />
        </mxCell>
        <mxCell id="LxGKf1Y-PwQG7vBsX0Jm-14" value="" style="rounded=1;whiteSpace=wrap;html=1;rotation=90;" parent="1" vertex="1">
          <mxGeometry x="10.000000000000014" y="-40" width="200" height="100" as="geometry" />
        </mxCell>
        <mxCell id="LxGKf1Y-PwQG7vBsX0Jm-15" value="" style="ellipse;whiteSpace=wrap;html=1;aspect=fixed;" parent="1" vertex="1">
          <mxGeometry x="97.67000000000002" y="80.33999999999997" width="24.66" height="24.66" as="geometry" />
        </mxCell>
        <mxCell id="LxGKf1Y-PwQG7vBsX0Jm-16" value="" style="rounded=1;whiteSpace=wrap;html=1;" parent="1" vertex="1">
          <mxGeometry x="280" y="-92.32999999999998" width="190" height="204.66" as="geometry" />
        </mxCell>
        <mxCell id="LxGKf1Y-PwQG7vBsX0Jm-17" value="A" style="text;html=1;strokeColor=none;fillColor=none;align=center;verticalAlign=middle;whiteSpace=wrap;rounded=0;fontStyle=1;fontSize=22;" parent="1" vertex="1">
          <mxGeometry x="80" y="-140" width="60" height="30" as="geometry" />
        </mxCell>
        <mxCell id="LxGKf1Y-PwQG7vBsX0Jm-18" value="B" style="text;html=1;strokeColor=none;fillColor=none;align=center;verticalAlign=middle;whiteSpace=wrap;rounded=0;fontStyle=1;fontSize=22;" parent="1" vertex="1">
          <mxGeometry x="335" y="-140" width="60" height="30" as="geometry" />
        </mxCell>
        <mxCell id="LxGKf1Y-PwQG7vBsX0Jm-19" value="C" style="text;html=1;strokeColor=none;fillColor=none;align=center;verticalAlign=middle;whiteSpace=wrap;rounded=0;fontStyle=1;fontSize=22;" parent="1" vertex="1">
          <mxGeometry x="590" y="-140" width="60" height="30" as="geometry" />
        </mxCell>
        <mxCell id="LxGKf1Y-PwQG7vBsX0Jm-20" value="" style="shape=flexArrow;endArrow=classic;startArrow=classic;html=1;rounded=0;fontSize=22;exitX=0.5;exitY=0;exitDx=0;exitDy=0;entryX=0;entryY=0.5;entryDx=0;entryDy=0;" parent="1" source="LxGKf1Y-PwQG7vBsX0Jm-14" target="LxGKf1Y-PwQG7vBsX0Jm-16" edge="1">
          <mxGeometry width="100" height="100" relative="1" as="geometry">
            <mxPoint x="160" y="10" as="sourcePoint" />
            <mxPoint x="270" y="10" as="targetPoint" />
          </mxGeometry>
        </mxCell>
        <mxCell id="LxGKf1Y-PwQG7vBsX0Jm-21" value="" style="shape=flexArrow;endArrow=classic;startArrow=classic;html=1;rounded=0;fontSize=22;entryX=0;entryY=0.5;entryDx=0;entryDy=0;entryPerimeter=0;exitX=1;exitY=0.5;exitDx=0;exitDy=0;" parent="1" source="LxGKf1Y-PwQG7vBsX0Jm-16" target="LxGKf1Y-PwQG7vBsX0Jm-13" edge="1">
          <mxGeometry width="100" height="100" relative="1" as="geometry">
            <mxPoint x="330" y="90" as="sourcePoint" />
            <mxPoint x="430" y="-10" as="targetPoint" />
          </mxGeometry>
        </mxCell>
        <mxCell id="LxGKf1Y-PwQG7vBsX0Jm-22" value="&lt;b&gt;1&lt;/b&gt;" style="text;html=1;strokeColor=none;fillColor=none;align=center;verticalAlign=middle;whiteSpace=wrap;rounded=0;fontSize=22;" parent="1" vertex="1">
          <mxGeometry x="195" y="-30" width="60" height="30" as="geometry" />
        </mxCell>
        <mxCell id="LxGKf1Y-PwQG7vBsX0Jm-23" value="&lt;b&gt;2&lt;/b&gt;" style="text;html=1;strokeColor=none;fillColor=none;align=center;verticalAlign=middle;whiteSpace=wrap;rounded=0;fontSize=22;" parent="1" vertex="1">
          <mxGeometry x="500" y="-30" width="60" height="30" as="geometry" />
        </mxCell>
        <mxCell id="LxGKf1Y-PwQG7vBsX0Jm-24" value="PG" style="text;html=1;strokeColor=none;fillColor=none;align=center;verticalAlign=middle;whiteSpace=wrap;rounded=0;fontSize=22;fontStyle=1" parent="1" vertex="1">
          <mxGeometry x="620" width="60" height="30" as="geometry" />
        </mxCell>
        <mxCell id="LxGKf1Y-PwQG7vBsX0Jm-25" value="&lt;font style=&quot;font-size: 17px;&quot;&gt;A - Фронтенд (мобильное приложение)&lt;/font&gt;&lt;div style=&quot;font-size: 17px;&quot;&gt;&lt;font style=&quot;font-size: 17px;&quot;&gt;B - Бэкенд / сервер&lt;/font&gt;&lt;/div&gt;&lt;div style=&quot;font-size: 17px;&quot;&gt;&lt;font style=&quot;font-size: 17px;&quot;&gt;C - Реляционная БД&amp;nbsp;&lt;/font&gt;&lt;span style=&quot;background-color: initial;&quot;&gt;PostgresSQL&lt;/span&gt;&lt;/div&gt;" style="text;html=1;align=left;verticalAlign=middle;resizable=0;points=[];autosize=1;strokeColor=none;fillColor=none;" parent="1" vertex="1">
          <mxGeometry x="65" y="165" width="330" height="70" as="geometry" />
        </mxCell>
        <mxCell id="8LWTE12SkHNDcFOkaGF4-2" value="&lt;font style=&quot;font-size: 17px; background-color: initial;&quot;&gt;1 - https&lt;/font&gt;&lt;div&gt;&lt;font style=&quot;font-size: 17px; background-color: initial;&quot;&gt;2 - протокол PostgreSQL&lt;/font&gt;&lt;/div&gt;" style="text;html=1;align=left;verticalAlign=middle;resizable=0;points=[];autosize=1;strokeColor=none;fillColor=none;" parent="1" vertex="1">
          <mxGeometry x="470" y="175" width="220" height="50" as="geometry" />
        </mxCell>
      </root>
    </mxGraphModel>
  </diagram>
</mxfile>
